<svg xmlns="http://www.w3.org/2000/svg" width="24" height="24" fill="none"><path fill="#292D32" d="M6.75 16.75a.75.75 0 0 0 0 1.5h10.5a.75.75 0 0 0 0-1.5H6.75Z"/><path fill="#292D32" fill-rule="evenodd" d="M12 1.976c-.671 0-1.263.221-1.879.574-.59.337-1.262.833-2.089 1.442l-3.677 2.71c-1.06.78-1.798 1.322-2.202 2.123-.404.8-.404 1.716-.403 3.033v3.697c0 1.367 0 2.47.117 3.337.12.9.38 1.658.981 2.26.602.602 1.36.86 2.26.982.867.116 1.97.116 3.337.116h7.11c1.367 0 2.47 0 3.337-.116.9-.122 1.658-.38 2.26-.982.602-.602.86-1.36.982-2.26.116-.867.116-1.97.116-3.337v-3.697c0-1.317.001-2.233-.403-3.033-.404-.8-1.142-1.343-2.203-2.124l-3.676-2.709c-.827-.61-1.5-1.105-2.09-1.442-.615-.353-1.207-.574-1.878-.574Zm-3.114 3.25c.872-.642 1.475-1.085 1.98-1.375.49-.28.82-.375 1.134-.375.315 0 .645.096 1.133.375.506.29 1.11.733 1.981 1.375l3.5 2.58c1.259.927 1.671 1.254 1.894 1.695.223.441.242.967.242 2.53V15.5c0 1.435-.002 2.436-.103 3.192-.099.734-.28 1.122-.556 1.399-.277.277-.665.457-1.4.556-.755.101-1.756.103-3.191.103h-7c-1.435 0-2.437-.002-3.192-.103-.734-.099-1.122-.28-1.399-.556-.277-.277-.457-.665-.556-1.4-.101-.755-.103-1.756-.103-3.191v-3.468c0-1.564.019-2.09.242-2.53.223-.442.635-.77 1.894-1.697l3.5-2.579Z" clip-rule="evenodd"/></svg>