<svg xmlns="http://www.w3.org/2000/svg" viewBox="0 0 32 32"><path d="M16 4C8.8 4 3 9.8 3 17s5.8 13 13 13 13-5.8 13-13S23.2 4 16 4zm0 24.1c-6.1 0-11.1-5-11.1-11.1S9.9 5.9 16 5.9s11.1 5 11.1 11.1-5 11.1-11.1 11.1zM3.7 7.7l4-4c.4-.4.4-1 0-1.4s-1-.4-1.4 0l-4 4c-.4.4-.4 1 0 1.4.2.2.4.3.7.3s.5-.1.7-.3zm26-1.4-4-4c-.4-.4-1-.4-1.4 0s-.4 1 0 1.4l4 4c.2.2.4.3.7.3s.5-.1.7-.3c.4-.4.4-1 0-1.4z"/><path d="M23.9 18h-.1c-.5-.1-.9-.5-.9-1s.4-.9.9-1H25c-.5-4.2-3.8-7.5-8-8V9.2c-.1.5-.5.9-1 .9s-.9-.4-1-.9V8c-4.2.5-7.5 3.8-8 8H8.2c.5.1.9.5.9 1s-.4.9-.9 1H7c.5 4.2 3.8 7.5 8 8V24.8c.1-.5.5-.9 1-.9s.9.4 1 .9V26c4.2-.5 7.5-3.8 8-8h-1.1c.1 0 .1 0 0 0zM20 18h-3v3c0 .5-.5 1-1 1s-1-.5-1-1v-3h-3c-.5 0-1-.5-1-1s.5-1 1-1h3v-3c0-.5.5-1 1-1s1 .5 1 1v3h3c.5 0 1 .5 1 1s-.5 1-1 1z"/></svg>