<svg xmlns="http://www.w3.org/2000/svg" viewBox="0 0 64 64"><path fill="#231f20" d="M4.04 32.492a1.001 1.001 0 0 1-.999-.946A29.14 29.14 0 0 1 3 29.977l.004-.502a1 1 0 0 1 1-.982h.019a1 1 0 0 1 .98 1.018L5 29.977q0 .727.04 1.461a1 1 0 0 1-.946 1.053 1.001 1.001 0 0 1-.055.001zm.317-5.978a1 1 0 0 1-.988-1.16c.11-.683.246-1.366.404-2.032a1 1 0 1 1 1.946.462 26.584 26.584 0 0 0-.375 1.889 1 1 0 0 1-.987.84zm1.584-5.775a.988.988 0 0 1-.366-.07 1 1 0 0 1-.564-1.297c.25-.635.529-1.274.83-1.9a1 1 0 1 1 1.802.866c-.279.582-.539 1.177-.771 1.767a1.001 1.001 0 0 1-.93.634zm49.895-4.443a1 1 0 0 1-.853-.475c-.333-.54-.693-1.079-1.07-1.601a1 1 0 1 1 1.622-1.171c.406.562.792 1.14 1.152 1.723a1 1 0 0 1-.85 1.524zm-47.112-.862a1 1 0 0 1-.83-1.556c.384-.574.792-1.14 1.214-1.68a1 1 0 1 1 1.577 1.23 26.915 26.915 0 0 0-1.13 1.561 1 1 0 0 1-.831.445zm43.436-3.866a.997.997 0 0 1-.72-.306 27.035 27.035 0 0 0-1.387-1.34 1 1 0 1 1 1.337-1.487c.508.457 1.01.94 1.49 1.438a1 1 0 0 1-.72 1.695zm-39.592-.726a1 1 0 0 1-.694-1.72 29.738 29.738 0 0 1 1.539-1.383 1 1 0 1 1 1.283 1.533 27.89 27.89 0 0 0-1.434 1.29.998.998 0 0 1-.694.28zm34.998-3.117a.997.997 0 0 1-.556-.17 27.29 27.29 0 0 0-1.638-1.015 1 1 0 1 1 .992-1.736 29.3 29.3 0 0 1 1.76 1.09 1 1 0 0 1-.558 1.83zm-30.271-.556a1 1 0 0 1-.527-1.851c.583-.36 1.187-.705 1.797-1.024a1 1 0 1 1 .928 1.77c-.567.299-1.13.62-1.673.955a.999.999 0 0 1-.525.15zm24.97-2.226a.987.987 0 0 1-.366-.07 27.668 27.668 0 0 0-1.818-.642 1 1 0 0 1 .6-1.908c.654.205 1.31.437 1.951.69a1 1 0 0 1-.366 1.93zm-19.573-.358a1 1 0 0 1-.332-1.943c.647-.227 1.31-.435 1.976-.617a1 1 0 1 1 .527 1.93c-.619.168-1.237.362-1.839.573a1.001 1.001 0 0 1-.332.057zm13.8-1.228a.992.992 0 0 1-.16-.013 27.056 27.056 0 0 0-1.913-.239 1 1 0 0 1-.908-1.084 1.016 1.016 0 0 1 1.084-.908c.682.06 1.373.147 2.056.257a1 1 0 0 1-.158 1.987zm-7.972-.14a1 1 0 0 1-.122-1.993 28.896 28.896 0 0 1 2.059-.182l.055.999v1c-.588.032-1.232.088-1.868.168a.958.958 0 0 1-.124.007zm32.187 22.077-16-16A1 1 0 0 0 44 9H24a5.005 5.005 0 0 0-4.999 5v11.1a5.008 5.008 0 0 0-4 4.9v5a3.003 3.003 0 0 1-3 3h-1v-2a1 1 0 0 0-1-1h-6a1 1 0 0 0-1 1V62a1 1 0 0 0 1 1h6a1 1 0 0 0 1-1v-2h8.431A4.972 4.972 0 0 0 24 63h32a5.006 5.006 0 0 0 5-5V26a1 1 0 0 0-.293-.706zM45 12.414 57.586 25H48a3.003 3.003 0 0 1-3-3zM9.001 61h-4V37h4zm2-21h1a5.006 5.006 0 0 0 5-5v-5A3 3 0 1 1 23 30v7a1 1 0 0 0 1 1h8.811a4.999 4.999 0 0 1 4.919 5.895l-1.816 9.999A5 5 0 0 1 30.994 58H11zM56 61H24a2.985 2.985 0 0 1-2.229-1h9.222a6.998 6.998 0 0 0 6.887-5.748l1.817-10A6.998 6.998 0 0 0 32.812 36H25v-6a5.008 5.008 0 0 0-3.999-4.899v-11.1A3.003 3.003 0 0 1 24 11h19v11a5.006 5.006 0 0 0 5 5h11V58a3.003 3.003 0 0 1-3 3zm-9.183-16.414a1 1 0 0 0-1.82 0l-5 11a1 1 0 1 0 1.82.828l1.105-2.43c.027.002.05.016.078.016h5.9l1.096 2.414a1 1 0 1 0 1.82-.828zM43.824 52l2.083-4.583L47.99 52zM55 47a1 1 0 0 1-1 1h-1v1a1 1 0 0 1-2 0v-1h-1a1 1 0 0 1 0-2h1v-1a1 1 0 0 1 2 0v1h1a1 1 0 0 1 1 1zM39 18a1 1 0 0 1-1 1h-9a1 1 0 0 1 0-2h9a1 1 0 0 1 1 1zm-11 5a1 1 0 0 1 1-1h5a1 1 0 0 1 0 2h-5a1 1 0 0 1-1-1zm11 5a1 1 0 0 1-1 1h-9a1 1 0 0 1 0-2h9a1 1 0 0 1 1 1z" data-name="Layer 2"/></svg>