<svg xmlns="http://www.w3.org/2000/svg" viewBox="0 0 64 64"><path d="M20 60H10a6.007 6.007 0 0 1-6-6V33a6.007 6.007 0 0 1 6-6h16a6.007 6.007 0 0 1 6 6v15a1 1 0 0 1-.293.707l-11 11A1 1 0 0 1 20 60ZM10 29a4.004 4.004 0 0 0-4 4v21a4.004 4.004 0 0 0 4 4h9.586L30 47.586V33a4.004 4.004 0 0 0-4-4Zm21 19Z"/><path d="M20 60a1 1 0 0 1-1-1v-6a6.007 6.007 0 0 1 6-6h6a1 1 0 0 1 .707 1.707l-11 11A1 1 0 0 1 20 60zm5-11a4.004 4.004 0 0 0-4 4v3.586L28.586 49zm-11.5-8a5.5 5.5 0 1 1 5.5-5.5 5.507 5.507 0 0 1-5.5 5.5zm0-9a3.5 3.5 0 1 0 3.5 3.5 3.504 3.504 0 0 0-3.5-3.5z"/><path d="M14 38a.999.999 0 0 1-.707-.293l-2-2a1 1 0 0 1 1.414-1.414l1.226 1.226 4.298-5.16a1 1 0 0 1 1.538 1.281l-5 6a1.002 1.002 0 0 1-.724.359zm12-5h-4a1 1 0 0 1 0-2h4a1 1 0 0 1 0 2zm1 3h-6a1 1 0 0 1 0-2h6a1 1 0 0 1 0 2zM13.5 54a5.5 5.5 0 1 1 5.5-5.5 5.507 5.507 0 0 1-5.5 5.5zm0-9a3.5 3.5 0 1 0 3.5 3.5 3.504 3.504 0 0 0-3.5-3.5zM26 46h-4a1 1 0 0 1 0-2h4a1 1 0 0 1 0 2z"/><path d="M39 46a21.32 21.32 0 0 1-4.197-.42 1 1 0 0 1 .394-1.96A19.295 19.295 0 0 0 39 44a19 19 0 1 0-18.97-19.951 1.017 1.017 0 0 1-1.049.95 1 1 0 0 1-.95-1.048A20.998 20.998 0 1 1 39 46Z"/><path d="M39 42a17.03 17.03 0 0 1-4.25-.532 1 1 0 1 1 .5-1.936 15.004 15.004 0 1 0-11.222-15.47 1 1 0 0 1-1.996-.124A17 17 0 1 1 39 42Z"/><path d="M39 28a3 3 0 1 1 3-3 3.003 3.003 0 0 1-3 3Zm0-4a1 1 0 1 0 1 1 1.001 1.001 0 0 0-1-1Z"/><path d="M37.586 24.586a.997.997 0 0 1-.707-.293l-2.828-2.829a1 1 0 0 1 1.414-1.414l2.828 2.829a1 1 0 0 1-.707 1.707zm2.828 0a1 1 0 0 1-.707-1.707l6.364-6.364a1 1 0 0 1 1.414 1.414l-6.364 6.364a.997.997 0 0 1-.707.293zM39 12a1 1 0 0 1-1-1v-1a1 1 0 0 1 2 0v1a1 1 0 0 1-1 1zm0 29a1 1 0 0 1-1-1v-1a1 1 0 0 1 2 0v1a1 1 0 0 1-1 1zm15-15h-1a1 1 0 0 1 0-2h1a1 1 0 0 1 0 2z"/></svg>