<svg xmlns="http://www.w3.org/2000/svg" viewBox="0 0 40 40"><path d="M20 25.3c-.6 0-1-.4-1-1v-4.4c0-.6.4-1 1-1 2.2 0 4-1.8 4-4s-1.8-4-4-4-4 1.8-4 4c0 .6-.4 1-1 1s-1-.4-1-1c0-3.3 2.7-6 6-6s6 2.7 6 6c0 3-2.2 5.4-5 5.9v3.5c0 .6-.4 1-1 1z"/><path d="M20 40C9 40 0 31 0 20S9 0 20 0c4.5 0 8.7 1.5 12.3 4.2.4.3.5 1 .2 1.4-.3.4-1 .5-1.4.2C27.9 3.3 24 2 20 2 10.1 2 2 10.1 2 20s8.1 18 18 18 18-8.1 18-18c0-3.2-.9-6.4-2.5-9.2-.3-.5-.1-1.1.3-1.4.5-.3 1.1-.1 1.4.3C39 12.9 40 16.4 40 20c0 11-9 20-20 20z"/><path d="M20 32.5c-.6 0-1-.4-1-1v-2.7c0-.6.4-1 1-1s1 .4 1 1v2.7c0 .6-.4 1-1 1z"/></svg>