<svg xmlns="http://www.w3.org/2000/svg" viewBox="0 0 64 64"><g data-name="Layer 21"><path d="M40 20H28a1 1 0 0 0-1 1v18a1 1 0 0 0 1 1h12a1 1 0 0 0 1-1V21a1 1 0 0 0-1-1Zm-5 8v2h-2v-2Zm4 0v2h-2v-2Zm-8 2h-2v-2h2Zm-2 2h2v2h-2Zm4 0h2v2h-2Zm4 0h2v2h-2Zm-8-10h10v4H29Zm0 14h2v2h-2Zm4 0h2v2h-2Zm6 2h-2v-2h2Z"/><path d="M55 8H9a1 1 0 0 0-1 1v42a1 1 0 0 0 1 1h3v3a1 1 0 0 0 1 1h4a1 1 0 0 0 1-1v-3h28v3a1 1 0 0 0 1 1h4a1 1 0 0 0 1-1v-3h3a1 1 0 0 0 1-1V9a1 1 0 0 0-1-1ZM16 54h-2v-2h2Zm34 0h-2v-2h2Zm4-4H10V10h44Z"/><path d="M14 42h2v5a1 1 0 0 0 1 1h34a1 1 0 0 0 1-1V13a1 1 0 0 0-1-1H17a1 1 0 0 0-1 1v5h-2a2 2 0 0 0-2 2v2a2 2 0 0 0 2 2h2v12h-2a2 2 0 0 0-2 2v2a2 2 0 0 0 2 2Zm0-22h6v2h-6Zm4 4h2a2 2 0 0 0 2-2v-2a2 2 0 0 0-2-2h-2v-4h32v32H18v-4h2a2 2 0 0 0 2-2v-2a2 2 0 0 0-2-2h-2Zm-4 14h6v2h-6Z"/></g></svg>